<?xml version="1.0" encoding="UTF-8"?>
<svg version="1.1" xmlns="http://www.w3.org/2000/svg" width="100" height="100">
<path d="M0 0 C33 0 66 0 100 0 C100 33 100 66 100 100 C67 100 34 100 0 100 C0 67 0 34 0 0 Z " fill="#1B9AFA" transform="translate(0,0)"/>
<path d="M0 0 C1.10758667 0.03927612 1.10758667 0.03927612 2.23754883 0.0793457 C3.44121094 0.10351562 3.44121094 0.10351562 4.66918945 0.12817383 C5.50256836 0.17006836 6.33594727 0.21196289 7.19458008 0.25512695 C8.03956055 0.27768555 8.88454102 0.30024414 9.75512695 0.32348633 C11.83986806 0.38237732 13.92369812 0.47205897 16.00708008 0.56762695 C17.32708008 5.84762695 18.64708008 11.12762695 20.00708008 16.56762695 C22.37395403 13.75152522 22.37395403 13.75152522 21.54614258 10.6496582 C21.24450195 9.57071289 20.94286133 8.49176758 20.63208008 7.38012695 C20.18735352 5.75010742 20.18735352 5.75010742 19.73364258 4.0871582 C19.49387695 3.25571289 19.25411133 2.42426758 19.00708008 1.56762695 C28.37780615 5.77404177 33.28807843 14.38856239 37.00708008 23.56762695 C40.9097172 35.19534714 39.66023895 46.37458854 35.88208008 57.7746582 C34.85760065 60.55695593 34.85760065 60.55695593 35.00708008 63.56762695 C34.98645508 64.41325195 34.96583008 65.25887695 34.94458008 66.13012695 C34.83489255 68.57670202 34.83489255 68.57670202 36.00708008 70.56762695 C35.34708008 70.56762695 34.68708008 70.56762695 34.00708008 70.56762695 C34.00708008 71.22762695 34.00708008 71.88762695 34.00708008 72.56762695 C28.06708008 72.56762695 22.12708008 72.56762695 16.00708008 72.56762695 C15.57395508 71.20637695 15.14083008 69.84512695 14.69458008 68.44262695 C13.43194932 64.62467205 11.8417214 61.14954573 10.00708008 57.56762695 C10.00708008 56.90762695 10.00708008 56.24762695 10.00708008 55.56762695 C6.07332965 57.66527186 2.14066385 59.76493215 -1.79101562 61.86645508 C-3.12828522 62.58087568 -4.46584804 63.2947477 -5.80371094 64.00805664 C-7.72823463 65.0342787 -9.65169027 66.06247815 -11.57495117 67.09106445 C-12.7322876 67.70900879 -13.88962402 68.32695313 -15.08203125 68.96362305 C-18.05833389 70.55037861 -18.05833389 70.55037861 -20.99291992 72.56762695 C-23.16943359 72.79467773 -23.16943359 72.79467773 -25.66088867 72.76293945 C-26.99990234 72.75327148 -26.99990234 72.75327148 -28.3659668 72.7434082 C-29.75912109 72.71827148 -29.75912109 72.71827148 -31.18041992 72.69262695 C-32.12079102 72.68360352 -33.06116211 72.67458008 -34.0300293 72.6652832 C-36.3512496 72.64171751 -38.67195636 72.60881812 -40.99291992 72.56762695 C-36.17537379 62.69031169 -31.08935745 53.01406593 -25.71166992 43.4309082 C-22.67751568 38.0215661 -19.70840799 32.5773382 -16.74291992 27.13012695 C-16.25984375 26.24309082 -15.77676758 25.35605469 -15.27905273 24.44213867 C-14.57280762 23.14493896 -14.57280762 23.14493896 -13.85229492 21.8215332 C-13.38629883 20.96575684 -12.92030273 20.10998047 -12.44018555 19.22827148 C-11.42692636 17.36550181 -10.41534751 15.50181759 -9.4050293 13.63745117 C-8.88231445 12.67468262 -8.35959961 11.71191406 -7.82104492 10.7199707 C-7.1157666 9.41854126 -7.1157666 9.41854126 -6.39624023 8.09082031 C-5.93314453 7.2581665 -5.47004883 6.4255127 -4.99291992 5.56762695 C-4.52684326 4.64643066 -4.0607666 3.72523437 -3.58056641 2.77612305 C-1.99291992 0.56762695 -1.99291992 0.56762695 0 0 Z " fill="#F0F3FC" transform="translate(54.992919921875,14.432373046875)"/>
<path d="M0 0 C12.54 0 25.08 0 38 0 C38.495 1.98 38.495 1.98 39 4 C38.01 4 37.02 4 36 4 C36 5.32 36 6.64 36 8 C35.34 8 34.68 8 34 8 C34.495 9.485 34.495 9.485 35 11 C35.76183594 10.7834375 36.52367187 10.566875 37.30859375 10.34375 C49.50816784 7.05397721 57.02694584 7.8547695 69 12 C69 12.33 69 12.66 69 13 C64.71 13 60.42 13 56 13 C56.33 12.01 56.66 11.02 57 10 C54.47818712 10.28457432 51.95778804 10.57745058 49.4375 10.875 C48.73302734 10.95363281 48.02855469 11.03226563 47.30273438 11.11328125 C42.6868291 11.66633903 38.43823397 12.61195836 34 14 C34 14.66 34 15.32 34 16 C38.95 15.67 43.9 15.34 49 15 C49 15.66 49 16.32 49 17 C47.98679687 17.02513672 47.98679687 17.02513672 46.953125 17.05078125 C43.96901063 17.33970562 41.72864368 17.73404619 39 19 C35.82325118 23.91677706 34.76771034 29.20331701 35 35 C35.99 35.33 36.98 35.66 38 36 C38 36.66 38 37.32 38 38 C37.401875 37.690625 36.80375 37.38125 36.1875 37.0625 C33.91043228 35.89790296 33.91043228 35.89790296 31 35 C28.74205426 35.75410413 28.74205426 35.75410413 26.4375 36.9375 C22.17966102 39 22.17966102 39 20 39 C17.71217228 47.86008972 17.71217228 47.86008972 19.23828125 56.4140625 C20.87967681 58.20582939 20.87967681 58.20582939 22.71484375 59.60546875 C23.13894531 60.06566406 23.56304688 60.52585938 24 61 C23.76706671 64.61046603 21.67326856 67.64777534 19.9375 70.75 C19.38964844 71.73484375 18.84179688 72.7196875 18.27734375 73.734375 C17.85582031 74.48203125 17.43429688 75.2296875 17 76 C16.34 76 15.68 76 15 76 C14.35163958 74.25093469 13.70641216 72.50070781 13.0625 70.75 C12.70285156 69.77546875 12.34320313 68.8009375 11.97265625 67.796875 C10.57331666 63.7730712 9.87755786 60.46436532 9.9375 56.19140625 C9.94523438 55.27939453 9.95296875 54.36738281 9.9609375 53.42773438 C9.98692592 51.52148365 10.01296737 49.61523364 10.0390625 47.70898438 C10.04679688 46.79568359 10.05453125 45.88238281 10.0625 44.94140625 C10.07410156 44.11326416 10.08570313 43.28512207 10.09765625 42.43188477 C9.99452474 39.86365226 9.56680502 37.50348183 9 35 C8.01 35.66 7.02 36.32 6 37 C5.9071875 36.071875 5.9071875 36.071875 5.8125 35.125 C5.544375 34.42375 5.27625 33.7225 5 33 C3.35 32.34 1.7 31.68 0 31 C0 20.77 0 10.54 0 0 Z " fill="#E9F0FC" transform="translate(0,0)"/>
<path d="M0 0 C3.3 0 6.6 0 10 0 C10 23.43 10 46.86 10 71 C-4.52 71 -19.04 71 -34 71 C-34 70.01 -34 69.02 -34 68 C-38.29 66.35 -42.58 64.7 -47 63 C-47 62.34 -47 61.68 -47 61 C-47.66 61 -48.32 61 -49 61 C-49.66 60.01 -50.32 59.02 -51 58 C-51.99 57.34 -52.98 56.68 -54 56 C-53.35973877 55.65219482 -52.71947754 55.30438965 -52.05981445 54.94604492 C-49.14343394 53.36098089 -46.2279598 51.77425684 -43.3125 50.1875 C-42.30509766 49.64029297 -41.29769531 49.09308594 -40.25976562 48.52929688 C-39.28330078 47.99755859 -38.30683594 47.46582031 -37.30078125 46.91796875 C-36.40528564 46.43094482 -35.50979004 45.9439209 -34.5871582 45.44213867 C-32.79748541 44.44453584 -31.0338099 43.39936708 -29.29370117 42.31762695 C-27 41 -27 41 -25 41 C-21.9814361 46.63465261 -20.62537089 50.49851642 -19 57 C-13.06 57.33 -7.12 57.66 -1 58 C-1 57.34 -1 56.68 -1 56 C-0.67 55.67 -0.34 55.34 0 55 C-0.33 54.34 -0.66 53.68 -1 53 C-1.36141955 50.67085177 -1.69699525 48.33746522 -2 46 C-1.34 46 -0.68 46 0 46 C0.185625 44.205625 0.185625 44.205625 0.375 42.375 C0.64489317 39.76603269 1.1140483 37.68592853 2.015625 35.203125 C4.94389555 25.6746256 3.52547802 15.48903119 -0.22265625 6.453125 C-1 4 -1 4 0 0 Z " fill="#1A9AF9" transform="translate(90,29)"/>
<path d="M0 0 C20.46 0 40.92 0 62 0 C62 9.57 62 19.14 62 29 C58.04 29.495 58.04 29.495 54 30 C52.65915264 30.30169066 51.3193938 30.61517681 50 31 C49.6596875 30.50371094 49.319375 30.00742187 48.96875 29.49609375 C45.20263075 24.21751704 41.02593099 20.08197441 36 16 C36.31195313 16.86882813 36.62390625 17.73765625 36.9453125 18.6328125 C37.33460937 19.78523438 37.72390625 20.93765625 38.125 22.125 C38.71667969 23.83042969 38.71667969 23.83042969 39.3203125 25.5703125 C40.09009819 29.45463338 39.55836913 31.41466122 38 35 C35.69767174 31.1961533 35.12159579 27.06197163 34.375 22.75 C34.17390625 21.63238281 34.17390625 21.63238281 33.96875 20.4921875 C33.64033324 18.662437 33.3194202 16.83134246 33 15 C23.91649613 14.53076551 23.91649613 14.53076551 15 16 C11.59494443 19.18250292 10.43540314 22.63591143 9 27 C8.2343737 28.57542335 7.44583129 30.1401221 6.625 31.6875 C6.08875 32.780625 5.5525 33.87375 5 35 C2.36 35 -0.28 35 -3 35 C-4.40843182 30.45422306 -3.4862514 27.95728968 -1.5625 23.6875 C-0.85287109 22.08455078 -0.85287109 22.08455078 -0.12890625 20.44921875 C0.42990234 19.23685547 0.42990234 19.23685547 1 18 C4.3 17.67 7.6 17.34 11 17 C11 16.34 11 15.68 11 15 C9.824375 15.350625 8.64875 15.70125 7.4375 16.0625 C3.25308347 17.12911598 0.20108938 16.87522695 -4 16 C-4 15.34 -4 14.68 -4 14 C2.10526361 11.24664582 7.03506584 9.85584417 13.8125 9.9375 C15.27623047 9.95103516 15.27623047 9.95103516 16.76953125 9.96484375 C17.87361328 9.98224609 17.87361328 9.98224609 19 10 C19 10.66 19 11.32 19 12 C22.3 12 25.6 12 29 12 C18.7653741 8.78613616 11.36235502 7.79915892 1.1640625 11.44140625 C-1 12 -1 12 -4 11 C-4 10.01 -4 9.02 -4 8 C-3.34 8 -2.68 8 -2 8 C-2 6.68 -2 5.36 -2 4 C-1.01 4 -0.02 4 1 4 C0.67 2.68 0.34 1.36 0 0 Z " fill="#1DAEFB" transform="translate(38,0)"/>
<path d="M0 0 C9.37072607 4.20641482 14.28099836 12.82093543 18 22 C21.90263712 33.62772019 20.65315887 44.80696159 16.875 56.20703125 C15.85052057 58.98932898 15.85052057 58.98932898 16 62 C15.979375 62.845625 15.95875 63.69125 15.9375 64.5625 C15.82781247 67.00907507 15.82781247 67.00907507 17 69 C16.34 69 15.68 69 15 69 C15 69.66 15 70.32 15 71 C9.06 71 3.12 71 -3 71 C-3.433125 69.63875 -3.86625 68.2775 -4.3125 66.875 C-5.27764513 63.95198904 -6.30323633 61.39352734 -7.6875 58.625 C-9 56 -9 56 -9 53 C-8.34 53 -7.68 53 -7 53 C-6.76925781 52.48050781 -6.53851563 51.96101563 -6.30078125 51.42578125 C-4.54173892 48.14540501 -2.37018955 45.19311816 -0.1875 42.1875 C0.23853516 41.59646484 0.66457031 41.00542969 1.10351562 40.39648438 C1.96202771 39.20547744 2.82156093 38.01520588 3.68212891 36.82568359 C5.79974212 33.89209492 7.8992003 30.94564554 10 28 C-0.00832099 32.87835758 -9.82361988 38.02238176 -19.52246094 43.4934082 C-20.3374707 43.9493335 -21.15248047 44.40525879 -21.9921875 44.875 C-22.71776855 45.28492188 -23.44334961 45.69484375 -24.19091797 46.1171875 C-26 47 -26 47 -28 47 C-26.44347945 41.6462535 -24.0182491 36.99849053 -21.375 32.125 C-20.95476563 31.34125 -20.53453125 30.5575 -20.1015625 29.75 C-19.0718978 27.83107943 -18.03652433 25.91522397 -17 24 C-16.34 24 -15.68 24 -15 24 C-13.86235649 28.26616316 -13 31.56486311 -13 36 C-8.05 33.36 -3.1 30.72 2 28 C1.9690625 24.8753125 1.9690625 24.8753125 1.9375 21.6875 C1.875 15.375 1.875 15.375 3 12 C2.46385749 9.00601038 2.46385749 9.00601038 1.5625 5.8125 C1.27503906 4.72582031 0.98757812 3.63914062 0.69140625 2.51953125 C0.34916016 1.27236328 0.34916016 1.27236328 0 0 Z " fill="#30A9FA" transform="translate(74,16)"/>
<path d="M0 0 C10.89 0 21.78 0 33 0 C35 5 35 5 34.125 7.625 C33.75375 8.40875 33.3825 9.1925 33 10 C33 10.99 33 11.98 33 13 C33 13.66 33 14.32 33 15 C31.15535156 14.91685547 31.15535156 14.91685547 29.2734375 14.83203125 C20.24691571 14.37005873 20.24691571 14.37005873 12.609375 18.234375 C11.09946755 21.11114604 10.01429582 23.91621352 9 27 C8.2343737 28.57542335 7.44583129 30.1401221 6.625 31.6875 C6.08875 32.780625 5.5525 33.87375 5 35 C2.36 35 -0.28 35 -3 35 C-4.40843182 30.45422306 -3.4862514 27.95728968 -1.5625 23.6875 C-0.85287109 22.08455078 -0.85287109 22.08455078 -0.12890625 20.44921875 C0.42990234 19.23685547 0.42990234 19.23685547 1 18 C4.3 17.67 7.6 17.34 11 17 C11 16.34 11 15.68 11 15 C9.824375 15.350625 8.64875 15.70125 7.4375 16.0625 C3.25308347 17.12911598 0.20108938 16.87522695 -4 16 C-4 15.34 -4 14.68 -4 14 C2.10526361 11.24664582 7.03506584 9.85584417 13.8125 9.9375 C15.27623047 9.95103516 15.27623047 9.95103516 16.76953125 9.96484375 C17.87361328 9.98224609 17.87361328 9.98224609 19 10 C19 10.66 19 11.32 19 12 C22.3 12 25.6 12 29 12 C18.7653741 8.78613616 11.36235502 7.79915892 1.1640625 11.44140625 C-1 12 -1 12 -4 11 C-4 10.01 -4 9.02 -4 8 C-3.34 8 -2.68 8 -2 8 C-2 6.68 -2 5.36 -2 4 C-1.01 4 -0.02 4 1 4 C0.67 2.68 0.34 1.36 0 0 Z " fill="#24ADFA" transform="translate(38,0)"/>
<path d="M0 0 C8.58 0 17.16 0 26 0 C26.66 1.32 27.32 2.64 28 4 C28.66 4.66 29.32 5.32 30 6 C29.01 6.99 28.02 7.98 27 9 C26.731875 8.360625 26.46375 7.72125 26.1875 7.0625 C25.11332248 4.66868314 25.11332248 4.66868314 22 4 C22 5.65 22 7.3 22 9 C22.99 9.33 23.98 9.66 25 10 C25 10.66 25 11.32 25 12 C24.34 12 23.68 12 23 12 C22.9175 12.94875 22.835 13.8975 22.75 14.875 C22 18 22 18 20.0625 19.1875 C19.381875 19.455625 18.70125 19.72375 18 20 C17.34 20.99 16.68 21.98 16 23 C13.8359375 23.29296875 13.8359375 23.29296875 11.375 23.1875 C10.14910156 23.14689453 10.14910156 23.14689453 8.8984375 23.10546875 C8.27195312 23.07066406 7.64546875 23.03585938 7 23 C7.49113281 22.56042969 7.98226563 22.12085937 8.48828125 21.66796875 C10.27541725 20.04157708 10.27541725 20.04157708 10.1875 17.3125 C10.125625 16.549375 10.06375 15.78625 10 15 C7.03 15 4.06 15 1 15 C0.67 16.32 0.34 17.64 0 19 C0 12.73 0 6.46 0 0 Z " fill="#1AA9FB" transform="translate(0,0)"/>
<path d="M0 0 C2.09813307 3.1471996 2.79227216 5.48570627 3.7265625 9.12890625 C4.190625 10.92811523 4.190625 10.92811523 4.6640625 12.76367188 C4.98117188 14.01728516 5.29828125 15.27089844 5.625 16.5625 C6.11226562 18.4487207 6.11226562 18.4487207 6.609375 20.37304688 C9 29.70954241 9 29.70954241 9 32 C3.06 32 -2.88 32 -9 32 C-11.24609375 25.5546875 -11.24609375 25.5546875 -12 23 C-12.33 22.0925 -12.66 21.185 -13 20.25 C-13 15.02455331 -9.78910496 12.03001934 -6.5625 8.125 C-5.93794922 7.34125 -5.31339844 6.5575 -4.66992188 5.75 C-3.12845213 3.82022109 -1.57199485 1.90492895 0 0 Z " fill="#E8ECFC" transform="translate(80,55)"/>
<path d="M0 0 C9.37072607 4.20641482 14.28099836 12.82093543 18 22 C22.00768833 33.9132653 20.84370009 45.58270694 16 57 C15.34 57 14.68 57 14 57 C13.12785392 53.94233206 12.28054142 50.87830844 11.4375 47.8125 C11.19064453 46.94818359 10.94378906 46.08386719 10.68945312 45.19335938 C9.18260021 39.65408318 8.3645244 35.88155225 11.3125 30.6875 C11.869375 30.130625 12.42625 29.57375 13 29 C14.32 29 15.64 29 17 29 C15.20299191 21.59128245 12.53357505 13.53357505 7 8 C7.69165788 13.41798672 8.75799248 18.6822785 10 24 C7.16193238 20.62134807 5.65615461 17.07138009 4 13 C3.46375 11.824375 2.9275 10.64875 2.375 9.4375 C1.09233697 6.23084243 0.41644149 3.41482019 0 0 Z " fill="#F0F8FD" transform="translate(74,16)"/>
<path d="M0 0 C10.56 0 21.12 0 32 0 C32 6 32 6 30.9375 8.375 C29 10 29 10 25.5625 10.3125 C22 10 22 10 20.03515625 9.49609375 C13.41110403 7.88140156 7.46536209 9.19094211 1.1640625 11.44140625 C-1 12 -1 12 -4 11 C-4 10.01 -4 9.02 -4 8 C-3.34 8 -2.68 8 -2 8 C-2 6.68 -2 5.36 -2 4 C-1.01 4 -0.02 4 1 4 C0.67 2.68 0.34 1.36 0 0 Z " fill="#1BAEFB" transform="translate(38,0)"/>
<path d="M0 0 C0.625 2.375 0.625 2.375 1 5 C0.34 5.66 -0.32 6.32 -1 7 C4.13725982 7.48489837 4.13725982 7.48489837 8.4375 5 C8.953125 4.34 9.46875 3.68 10 3 C10.59551568 8.71695055 9.40162446 11.69983599 6.2890625 16.49609375 C5.86367187 16.99238281 5.43828125 17.48867188 5 18 C4.34 18 3.68 18 3 18 C3 19.32 3 20.64 3 22 C2.01 22 1.02 22 0 22 C-0.33 21.34 -0.66 20.68 -1 20 C-1.99 20.66 -2.98 21.32 -4 22 C-4.0928125 21.071875 -4.0928125 21.071875 -4.1875 20.125 C-4.5896875 19.073125 -4.5896875 19.073125 -5 18 C-7.50804892 16.84668432 -7.50804892 16.84668432 -10 16 C-10.02712153 14.083412 -10.04645097 12.1667127 -10.0625 10.25 C-10.07410156 9.18265625 -10.08570313 8.1153125 -10.09765625 7.015625 C-9.94533762 2.31202572 -9.94533762 2.31202572 -9 0 C-5.52176885 -1.15941038 -3.54104422 -0.70820884 0 0 Z " fill="#64A1FC" transform="translate(10,15)"/>
<path d="M0 0 C2.97 0 5.94 0 9 0 C9 6.27 9 12.54 9 19 C6.69 19.66 4.38 20.32 2 21 C2.33 20.01 2.66 19.02 3 18 C3.99 17.67 4.98 17.34 6 17 C3.69 15.35 1.38 13.7 -1 12 C-1.33 12.33 -1.66 12.66 -2 13 C-4.00720923 12.71325582 -6.0085944 12.38133299 -8 12 C-8.33 12.66 -8.66 13.32 -9 14 C-8.01 14.66 -7.02 15.32 -6 16 C-6.33 16.66 -6.66 17.32 -7 18 C-8.65 17.67 -10.3 17.34 -12 17 C-12 14.36 -12 11.72 -12 9 C-11.34 9 -10.68 9 -10 9 C-9.67 8.01 -9.34 7.02 -9 6 C-7.68 6.66 -6.36 7.32 -5 8 C-4.67 7.34 -4.34 6.68 -4 6 C-5.32 4.68 -6.64 3.36 -8 2 C-6.2984375 1.7834375 -6.2984375 1.7834375 -4.5625 1.5625 C-1.19222799 1.38828522 -1.19222799 1.38828522 0 0 Z " fill="#17A6FB" transform="translate(91,0)"/>
<path d="M0 0 C3.3 0 6.6 0 10 0 C10 9.24 10 18.48 10 28 C6 26 6 26 5 24 C4.875 20.4375 4.875 20.4375 5 17 C5.33 16.67 5.66 16.34 6 16 C5.401875 15.505 4.80375 15.01 4.1875 14.5 C1.43833149 11.35809313 -0.14372403 8.09732052 -1 4 C-0.67 2.68 -0.34 1.36 0 0 Z " fill="#1AA2FA" transform="translate(90,29)"/>
<path d="M0 0 C3.82453562 1.27484521 5.85376392 3.66141054 8 7 C7.58995303 10.64310963 5.70418247 13.59252494 3.9375 16.75 C3.38964844 17.73484375 2.84179688 18.7196875 2.27734375 19.734375 C1.85582031 20.48203125 1.43429688 21.2296875 1 22 C0.34 22 -0.32 22 -1 22 C-1.67467562 20.25307205 -2.33944156 18.50231475 -3 16.75 C-3.37125 15.77546875 -3.7425 14.8009375 -4.125 13.796875 C-5 11 -5 11 -5 7 C-4.34 7 -3.68 7 -3 7 C-2.87625 6.030625 -2.7525 5.06125 -2.625 4.0625 C-2.41875 3.051875 -2.2125 2.04125 -2 1 C-1.34 0.67 -0.68 0.34 0 0 Z " fill="#EDF3FC" transform="translate(16,54)"/>
<path d="M0 0 C3.96 0 7.92 0 12 0 C12.33 1.32 12.66 2.64 13 4 C12.01 4 11.02 4 10 4 C10 5.32 10 6.64 10 8 C8.02 8 6.04 8 4 8 C3.34 10.97 2.68 13.94 2 17 C0.02 16.67 -1.96 16.34 -4 16 C-3.67 14.68 -3.34 13.36 -3 12 C-2.34 12 -1.68 12 -1 12 C-1.495 11.608125 -1.99 11.21625 -2.5 10.8125 C-4.45593143 8.44908285 -4.24207973 6.98564997 -4 4 C-1.13275314 4.57344937 -0.1385485 4.8614515 2 7 C2 6.34 2 5.68 2 5 C1.34 4.34 0.68 3.68 0 3 C0 2.01 0 1.02 0 0 Z " fill="#5BAAFC" transform="translate(26,0)"/>
<path d="M0 0 C4.99465883 0.47568179 8.10903025 1.8164793 12 5 C12.69313908 6.65583225 13.36474424 8.32110979 14 10 C15.32 10.33 16.64 10.66 18 11 C12.06 11 6.12 11 0 11 C0 7.37 0 3.74 0 0 Z " fill="#16CAFD" transform="translate(0,89)"/>
<path d="M0 0 C2 1 2 1 3 3 C3.039992 4.99960012 3.04346799 7.00047242 3 9 C5.31 8.34 7.62 7.68 10 7 C9 10 9 10 7 11 C5.0406396 11.08510205 3.07837206 11.10717656 1.1171875 11.09765625 C-0.04941406 11.09443359 -1.21601562 11.09121094 -2.41796875 11.08789062 C-3.64128906 11.07951172 -4.86460938 11.07113281 -6.125 11.0625 C-7.35605469 11.05798828 -8.58710937 11.05347656 -9.85546875 11.04882812 C-12.90369392 11.0370133 -15.95182314 11.02054028 -19 11 C-15.98368264 7.55146643 -13.49189775 7.56148722 -9 7 C-8.01 6.34 -7.02 5.68 -6 5 C-4.68 5 -3.36 5 -2 5 C-1.34 3.35 -0.68 1.7 0 0 Z " fill="#1396FA" transform="translate(77,89)"/>
<path d="M0 0 C1.65 0 3.3 0 5 0 C5 3.3 5 6.6 5 10 C3.7625 10.144375 2.525 10.28875 1.25 10.4375 C-1.56504499 10.78688502 -4.2701497 11.20379366 -7 12 C-8.37432457 8.18243176 -7.67975039 4.92744671 -7 1 C-6.34 1 -5.68 1 -5 1 C-5 1.66 -5 2.32 -5 3 C-4.01 3 -3.02 3 -2 3 C-1.34 2.01 -0.68 1.02 0 0 Z " fill="#1BAAFA" transform="translate(95,19)"/>
<path d="M0 0 C9.337309 4.19141426 14.3395505 12.81721145 18 22 C18.95785234 25.74433186 18.96600133 28.24332818 18 32 C17.01 31.01 16.02 30.02 15 29 C15.66 29 16.32 29 17 29 C15.20299191 21.59128245 12.53357505 13.53357505 7 8 C7.69165788 13.41798672 8.75799248 18.6822785 10 24 C7.16193238 20.62134807 5.65615461 17.07138009 4 13 C3.46375 11.824375 2.9275 10.64875 2.375 9.4375 C1.09233697 6.23084243 0.41644149 3.41482019 0 0 Z " fill="#DCEFFC" transform="translate(74,16)"/>
<path d="M0 0 C5.43885443 4.47905659 8.47834898 10.48356849 11 17 C11.16796875 19.875 11.16796875 19.875 11 22 C9.35 21.67 7.7 21.34 6 21 C6 20.34 6 19.68 6 19 C5.34 19 4.68 19 4 19 C3.32263519 16.96185767 2.65856466 14.91929445 2 12.875 C1.62875 11.73804688 1.2575 10.60109375 0.875 9.4296875 C0.03088051 6.12104059 -0.16509276 3.39471984 0 0 Z " fill="#1F90F9" transform="translate(80,23)"/>
<path d="M0 0 C1.65 0 3.3 0 5 0 C5.103125 0.61875 5.20625 1.2375 5.3125 1.875 C5.87525373 4.36526484 5.87525373 4.36526484 9 6 C8.01 8.31 7.02 10.62 6 13 C3.36 13 0.72 13 -2 13 C-3.71050559 8.02398374 -2.00885647 4.57383705 0 0 Z " fill="#5BB9FB" transform="translate(37,22)"/>
<path d="M0 0 C2.21009849 5.03411322 1.96495842 7.89110812 0 13 C-2 15 -2 15 -5 15.3125 C-5.99 15.209375 -6.98 15.10625 -8 15 C-8.66 14.01 -9.32 13.02 -10 12 C-8.68 10.68 -7.36 9.36 -6 8 C-6.33 7.01 -6.66 6.02 -7 5 C-2.25 0 -2.25 0 0 0 Z " fill="#189AF9" transform="translate(65,70)"/>
<path d="M0 0 C0 5.61 0 11.22 0 17 C-0.33 16.34 -0.66 15.68 -1 15 C-1.99 14.67 -2.98 14.34 -4 14 C-4 12.35 -4 10.7 -4 9 C-4.804375 8.7525 -5.60875 8.505 -6.4375 8.25 C-9 7 -9 7 -9.8125 4.875 C-9.874375 4.25625 -9.93625 3.6375 -10 3 C-6.32228686 -0.39481213 -5.62972396 0 0 0 Z " fill="#1CB0FB" transform="translate(100,0)"/>
<path d="M0 0 C0.66 0 1.32 0 2 0 C3.13764351 4.26616316 4 7.56486311 4 12 C2.5390625 13.484375 2.5390625 13.484375 0.625 14.75 C-0.00148438 15.17796875 -0.62796875 15.6059375 -1.2734375 16.046875 C-3 17 -3 17 -5 17 C-5 16.34 -5 15.68 -5 15 C-5.66 15 -6.32 15 -7 15 C-5.63408831 11.45756548 -4.09068516 8.07372071 -2.375 4.6875 C-1.70597656 3.36298828 -1.70597656 3.36298828 -1.0234375 2.01171875 C-0.68570313 1.34785156 -0.34796875 0.68398438 0 0 Z " fill="#33ABFA" transform="translate(57,40)"/>
<path d="M0 0 C0.99 0.66 1.98 1.32 3 2 C3.83012582 9.47113234 1.86917861 15.14727429 -1 22 C-3 20 -3 20 -3.265625 17.93359375 C-3.17322835 3.17322835 -3.17322835 3.17322835 0 0 Z " fill="#33A8FA" transform="translate(14,38)"/>
<path d="M0 0 C3.3 0 6.6 0 10 0 C9.67 2.97 9.34 5.94 9 9 C7.68 9.33 6.36 9.66 5 10 C4.01 10.33 3.02 10.66 2 11 C-1.125 4.5 -1.125 4.5 0 0 Z " fill="#1769F9" transform="translate(90,29)"/>
<path d="M0 0 C0.66 0.66 1.32 1.32 2 2 C4.06874034 2.6425235 4.06874034 2.6425235 6 3 C5.67 2.01 5.34 1.02 5 0 C7 0 7 0 8.3125 1.1875 C9.1478125 2.0846875 9.1478125 2.0846875 10 3 C10.886875 3.886875 11.77375 4.77375 12.6875 5.6875 C13.8321875 6.8321875 13.8321875 6.8321875 15 8 C13.68 8.33 12.36 8.66 11 9 C10.67 10.32 10.34 11.64 10 13 C9.01 12.67 8.02 12.34 7 12 C6.690625 11.175 6.38125 10.35 6.0625 9.5 C5.711875 8.675 5.36125 7.85 5 7 C3.07361988 6.24756445 3.07361988 6.24756445 1 6 C0.01 5.34 -0.98 4.68 -2 4 C-1.34 2.68 -0.68 1.36 0 0 Z " fill="#1EA7FA" transform="translate(83,10)"/>
<path d="M0 0 C0 0.33 0 0.66 0 1 C-4.29 1 -8.58 1 -13 1 C-12.67 0.01 -12.34 -0.98 -12 -2 C-14.54275398 -1.7161296 -17.08391554 -1.42316578 -19.625 -1.125 C-20.33785156 -1.04636719 -21.05070312 -0.96773437 -21.78515625 -0.88671875 C-26.08202185 -0.37424854 -29.921207 0.46884427 -34 2 C-34.33 1.34 -34.66 0.68 -35 0 C-21.28974931 -4.74667103 -13.71025069 -4.74667103 0 0 Z " fill="#C4E8FC" transform="translate(69,12)"/>
<path d="M0 0 C0.625 2.375 0.625 2.375 1 5 C-1 7 -1 7 -3.9375 7.0625 C-5.4534375 7.0315625 -5.4534375 7.0315625 -7 7 C-7.99 7.33 -8.98 7.66 -10 8 C-9.67 5.36 -9.34 2.72 -9 0 C-5.52176885 -1.15941038 -3.54104422 -0.70820884 0 0 Z " fill="#E5F5FD" transform="translate(10,15)"/>
<path d="M0 0 C2.33944736 0.28730055 4.6739143 0.61936779 7 1 C7 3.31 7 5.62 7 8 C0.25 9.125 0.25 9.125 -2 8 C-1.125 1.125 -1.125 1.125 0 0 Z " fill="#CFECFC" transform="translate(7,23)"/>
<path d="M0 0 C0.33 0.99 0.66 1.98 1 3 C3.01508358 3.73323796 3.01508358 3.73323796 5 4 C4.67 5.98 4.34 7.96 4 10 C3.34 8.68 2.68 7.36 2 6 C-1.3459312 12.02267616 -1.38916985 18.24675857 -1 25 C-0.67 25.99 -0.34 26.98 0 28 C-0.99 28 -1.98 28 -3 28 C-3 20.08 -3 12.16 -3 4 C-2.01 4 -1.02 4 0 4 C0 2.68 0 1.36 0 0 Z " fill="#BEE2FC" transform="translate(13,33)"/>
<path d="M0 0 C2 3 2 3 4 11 C9.94 11.33 15.88 11.66 22 12 C22 12.33 22 12.66 22 13 C18.93744039 13.0270491 15.8751214 13.04686298 12.8125 13.0625 C11.51602539 13.07506836 11.51602539 13.07506836 10.19335938 13.08789062 C5.99713231 13.10396812 2.09063114 13.07559038 -2 12 C-1.85962479 10.18706911 -1.71255111 8.3746557 -1.5625 6.5625 C-1.48128906 5.55316406 -1.40007812 4.54382813 -1.31640625 3.50390625 C-1 1 -1 1 0 0 Z " fill="#3FA9F9" transform="translate(67,75)"/>
<path d="M0 0 C0.99 0.33 1.98 0.66 3 1 C3.94921875 3.28515625 3.94921875 3.28515625 4.6875 6.0625 C4.93886719 6.98160156 5.19023438 7.90070312 5.44921875 8.84765625 C5.63097656 9.55792969 5.81273438 10.26820312 6 11 C4.35 11.66 2.7 12.32 1 13 C-1.70238949 8.94641576 -1.22937614 6.81689896 -1 2 C-0.67 1.34 -0.34 0.68 0 0 Z " fill="#24A7FA" transform="translate(77,29)"/>
<path d="M0 0 C3.14958831 3.42346555 3.56179109 6.44262737 4 11 C4.66 11 5.32 11 6 11 C5.67 11.99 5.34 12.98 5 14 C5.43942309 18.6538835 5.43942309 18.6538835 7 23 C6.01 23 5.02 23 4 23 C3.322781 20.48159185 2.65808826 17.96091276 2 15.4375 C1.80921875 14.73302734 1.6184375 14.02855469 1.421875 13.30273438 C0.24165914 8.72939791 -0.19856973 4.72223635 0 0 Z " fill="#29A3FA" transform="translate(84,62)"/>
<path d="M0 0 C0.845625 0.495 1.69125 0.99 2.5625 1.5 C2.5625 1.83 2.5625 2.16 2.5625 2.5 C-3.7075 2.5 -9.9775 2.5 -16.4375 2.5 C-11.52015649 -2.41734351 -6.33680509 -2.76515131 0 0 Z " fill="#16C9FD" transform="translate(48.4375,97.5)"/>
<path d="M0 0 C1.65 0.33 3.3 0.66 5 1 C4.34 4.3 3.68 7.6 3 11 C1.35 10.67 -0.3 10.34 -2 10 C-2 7.36 -2 4.72 -2 2 C-1.34 2 -0.68 2 0 2 C0 1.34 0 0.68 0 0 Z " fill="#4C84FC" transform="translate(2,21)"/>
<path d="M0 0 C0.99 0.33 1.98 0.66 3 1 C4.1875 4.0625 4.1875 4.0625 5 7 C3.68 6.67 2.36 6.34 1 6 C0.67 6.66 0.34 7.32 0 8 C0.99 8.66 1.98 9.32 3 10 C2.67 10.66 2.34 11.32 2 12 C0.35 11.67 -1.3 11.34 -3 11 C-3 8.36 -3 5.72 -3 3 C-2.34 3 -1.68 3 -1 3 C-0.67 2.01 -0.34 1.02 0 0 Z " fill="#0747FA" transform="translate(82,6)"/>
<path d="M0 0 C2 1 2 1 2.921875 3.73046875 C3.19515625 4.87128906 3.4684375 6.01210938 3.75 7.1875 C4.03359375 8.31542969 4.3171875 9.44335938 4.609375 10.60546875 C5.04085175 14.35500167 4.44407626 16.55200632 3 20 C1.13739295 16.73061378 0.42773089 13.70063691 -0.1875 10 C-0.36667969 8.96875 -0.54585938 7.9375 -0.73046875 6.875 C-0.98039267 4.20914487 -0.84991642 2.50755482 0 0 Z " fill="#43B7FA" transform="translate(73,15)"/>
<path d="M0 0 C5.98487816 5.12989556 9.8969393 12.14880326 11 20 C10.5625 22.8125 10.5625 22.8125 10 25 C9.01 24.01 8.02 23.02 7 22 C7.66 22 8.32 22 9 22 C7.36778464 15.27069105 4.98499205 9.84066904 1.20703125 4.03125 C0 2 0 2 0 0 Z " fill="#BCE1FC" transform="translate(82,23)"/>
<path d="M0 0 C6.6 0 13.2 0 20 0 C20.33 0.66 20.66 1.32 21 2 C18.59940183 3.20029908 17.10639351 3.11459743 14.4296875 3.09765625 C13.53378906 3.09443359 12.63789063 3.09121094 11.71484375 3.08789062 C10.77769531 3.07951172 9.84054688 3.07113281 8.875 3.0625 C7.93011719 3.05798828 6.98523438 3.05347656 6.01171875 3.04882812 C3.67441613 3.03702357 1.33723939 3.02055759 -1 3 C-0.67 2.01 -0.34 1.02 0 0 Z " fill="#E3E9FC" transform="translate(15,84)"/>
<path d="M0 0 C8.58207518 0.16955468 8.58207518 0.16955468 12.6953125 2.36328125 C12.6953125 2.69328125 12.6953125 3.02328125 12.6953125 3.36328125 C6.7553125 3.36328125 0.8153125 3.36328125 -5.3046875 3.36328125 C-2.3046875 0.36328125 -2.3046875 0.36328125 0 0 Z " fill="#15C9FD" transform="translate(63.3046875,96.63671875)"/>
<path d="M0 0 C1.1796875 1.640625 1.1796875 1.640625 2 4 C0.8828125 6.796875 0.8828125 6.796875 -0.875 9.75 C-1.73738281 11.22726563 -1.73738281 11.22726563 -2.6171875 12.734375 C-3.07351562 13.48203125 -3.52984375 14.2296875 -4 15 C-5.32 14.67 -6.64 14.34 -8 14 C-8 13.34 -8 12.68 -8 12 C-7 11 -6 10 -5 9 C-4.0585702 7.46454126 -3.16365136 5.89978226 -2.3125 4.3125 C-1.87550781 3.50425781 -1.43851563 2.69601563 -0.98828125 1.86328125 C-0.66214844 1.24839844 -0.33601563 0.63351563 0 0 Z " fill="#31A2F9" transform="translate(23,64)"/>
<path d="M0 0 C0.66 3.63 1.32 7.26 2 11 C0.35 11 -1.3 11 -3 11 C-3.33 9.68 -3.66 8.36 -4 7 C-2.68 7 -1.36 7 0 7 C0 6.34 0 5.68 0 5 C-1.32 4.34 -2.64 3.68 -4 3 C-4 2.34 -4 1.68 -4 1 C-2 0 -2 0 0 0 Z " fill="#229BF9" transform="translate(11,61)"/>
<path d="M0 0 C6.0546875 -0.1953125 6.0546875 -0.1953125 8 0 C8.66 0.66 9.32 1.32 10 2 C9.34 2 8.68 2 8 2 C8 3.32 8 4.64 8 6 C7.01 6 6.02 6 5 6 C4.67 5.34 4.34 4.68 4 4 C3.01 4.66 2.02 5.32 1 6 C0.4465236 3.92446352 0 2.15634036 0 0 Z " fill="#6CB0FC" transform="translate(5,31)"/>
<path d="M0 0 C1.9375 0.3125 1.9375 0.3125 4 1 C4.33 1.99 4.66 2.98 5 4 C4.195625 4.2475 3.39125 4.495 2.5625 4.75 C-0.171081 5.72238859 -0.171081 5.72238859 -0.8125 8.125 C-0.874375 8.74375 -0.93625 9.3625 -1 10 C-1.33 10 -1.66 10 -2 10 C-2.25 3.375 -2.25 3.375 0 0 Z " fill="#D0ECFC" transform="translate(30,7)"/>
<path d="M0 0 C0.66 0 1.32 0 2 0 C2 0.66 2 1.32 2 2 C3.32 2.33 4.64 2.66 6 3 C5.67 4.65 5.34 6.3 5 8 C3.35 7.67 1.7 7.34 0 7 C0 4.69 0 2.38 0 0 Z " fill="#1AD8FC" transform="translate(88,20)"/>
<path d="M0 0 C0 1.65 0 3.3 0 5 C2.97 5.33 5.94 5.66 9 6 C8.01 6.495 8.01 6.495 7 7 C6.67 7.99 6.34 8.98 6 10 C6 9.01 6 8.02 6 7 C3.03 7 0.06 7 -3 7 C-3.33 8.32 -3.66 9.64 -4 11 C-4 8.69 -4 6.38 -4 4 C-3.34 3.67 -2.68 3.34 -2 3 C-2.33 2.34 -2.66 1.68 -3 1 C-1 0 -1 0 0 0 Z " fill="#2DAEFA" transform="translate(4,8)"/>
<path d="M0 0 C2.64 0 5.28 0 8 0 C8 1.65 8 3.3 8 5 C7.01 5.495 7.01 5.495 6 6 C6 5.34 6 4.68 6 4 C4.35 4 2.7 4 1 4 C0.67 2.68 0.34 1.36 0 0 Z " fill="#D0EFFC" transform="translate(26,0)"/>
<path d="M0 0 C0.66 0.66 1.32 1.32 2 2 C3.31747324 2.69748583 4.64914193 3.36959957 6 4 C5.67 4.66 5.34 5.32 5 6 C5.99 6.33 6.98 6.66 8 7 C7.071875 6.979375 6.14375 6.95875 5.1875 6.9375 C1.97713989 6.84230396 1.97713989 6.84230396 -1 8 C-0.67 5.36 -0.34 2.72 0 0 Z " fill="#B6E4FC" transform="translate(1,15)"/>
<path d="M0 0 C0.99 0.33 1.98 0.66 3 1 C2.01 1.495 2.01 1.495 1 2 C1 2.66 1 3.32 1 4 C0.01 4 -0.98 4 -2 4 C-2 3.01 -2 2.02 -2 1 C-1.34 0.67 -0.68 0.34 0 0 Z M-3 4 C-2.67 4.66 -2.34 5.32 -2 6 C-2.928125 6.763125 -3.85625 7.52625 -4.8125 8.3125 C-6.98276101 10.11848552 -9.05568065 11.9476629 -11 14 C-10.44449305 10.40094092 -9.25112752 9.00090201 -6.4375 6.75 C-5.79683594 6.22921875 -5.15617187 5.7084375 -4.49609375 5.171875 C-4.00238281 4.78515625 -3.50867188 4.3984375 -3 4 Z " fill="#F5F9FD" transform="translate(32,12)"/>
<path d="M0 0 C0.66 0 1.32 0 2 0 C2.103125 0.763125 2.20625 1.52625 2.3125 2.3125 C3.05600892 5.21894395 3.84858032 6.03566029 6 8 C6 8.66 6 9.32 6 10 C3.69 10.66 1.38 11.32 -1 12 C-0.67 11.01 -0.34 10.02 0 9 C0.99 8.67 1.98 8.34 3 8 C1.35 6.35 -0.3 4.7 -2 3 C-1.34 3 -0.68 3 0 3 C0 2.01 0 1.02 0 0 Z " fill="#1371FC" transform="translate(94,9)"/>
<path d="M0 0 C0.66 0.66 1.32 1.32 2 2 C3.2375 2.1546875 3.2375 2.1546875 4.5 2.3125 C5.7375 2.6528125 5.7375 2.6528125 7 3 C8.3125 5.5625 8.3125 5.5625 9 8 C7.68 7.01 6.36 6.02 5 5 C4.67 5.66 4.34 6.32 4 7 C1 6 1 6 -2 4 C-1.34 2.68 -0.68 1.36 0 0 Z " fill="#2793FB" transform="translate(83,10)"/>
<path d="M0 0 C1.65 0.33 3.3 0.66 5 1 C5 1.99 5 2.98 5 4 C4.01 4 3.02 4 2 4 C2 5.32 2 6.64 2 8 C0.68 7.67 -0.64 7.34 -2 7 C-1.34 4.69 -0.68 2.38 0 0 Z " fill="#61BCFC" transform="translate(34,0)"/>
<path d="M0 0 C2.96404505 2.80804268 5.44499019 5.18315774 7 9 C4.0625 8.625 4.0625 8.625 1 8 C-0.35439668 5.29120665 -0.06501451 2.99066732 0 0 Z " fill="#2CB0FA" transform="translate(80,23)"/>
<path d="M0 0 C0.4125 0.45375 0.825 0.9075 1.25 1.375 C3.06408095 3.05950374 4.75285627 3.99265971 7 5 C2.48281619 6.36884358 -0.58774263 5.47075246 -5 4 C-3 1 -3 1 0 0 Z " fill="#2BB3FB" transform="translate(58,4)"/>
<path d="M0 0 C2.91517292 1.07401108 4.77810176 1.77810176 7 4 C7.66 3.67 8.32 3.34 9 3 C9 4.32 9 5.64 9 7 C6.50935112 7.68707555 4.62113708 8 2 8 C2.33 7.01 2.66 6.02 3 5 C1.62750037 2.32323453 1.62750037 2.32323453 0 0 Z " fill="#072CF7" transform="translate(90,31)"/>
<path d="M0 0 C0.33 1.32 0.66 2.64 1 4 C-0.98 4.33 -2.96 4.66 -5 5 C-5 5.66 -5 6.32 -5 7 C-6.32 6.34 -7.64 5.68 -9 5 C-6.45523312 2.20075644 -3.92372883 0 0 0 Z " fill="#3AAAFA" transform="translate(28,36)"/>
<path d="M0 0 C0.33 0.99 0.66 1.98 1 3 C3.01508358 3.73323796 3.01508358 3.73323796 5 4 C4.67 5.98 4.34 7.96 4 10 C3.34 8.68 2.68 7.36 2 6 C1.01 6.99 0.02 7.98 -1 9 C-2.0326802 6.21176345 -2.04509293 5.1322726 -1.0625 2.25 C-0.711875 1.5075 -0.36125 0.765 0 0 Z " fill="#AFD8FC" transform="translate(13,33)"/>
<path d="M0 0 C2.475 0.495 2.475 0.495 5 1 C4.67 2.65 4.34 4.3 4 6 C2.68 5.67 1.36 5.34 0 5 C0 3.35 0 1.7 0 0 Z " fill="#C4E6FC" transform="translate(38,27)"/>
<path d="M0 0 C1.98 0.99 3.96 1.98 6 3 C5.34 4.32 4.68 5.64 4 7 C3.01 7 2.02 7 1 7 C0.67 4.69 0.34 2.38 0 0 Z " fill="#1E84F8" transform="translate(82,30)"/>
<path d="M0 0 C1.32 0.33 2.64 0.66 4 1 C4 2.98 4 4.96 4 7 C2.68 7 1.36 7 0 7 C0 4.69 0 2.38 0 0 Z " fill="#18A1FA" transform="translate(94,56)"/>
<path d="M0 0 C0.99 0.33 1.98 0.66 3 1 C3.33 1.99 3.66 2.98 4 4 C2.0625 4.5625 2.0625 4.5625 0 5 C-0.33 4.67 -0.66 4.34 -1 4 C-2.66617115 3.95936168 -4.33388095 3.957279 -6 4 C-4.03617993 2.49440461 -2.21736634 1.10868317 0 0 Z " fill="#279DF9" transform="translate(45,80)"/>
<path d="M0 0 C2.31 0 4.62 0 7 0 C7 1.98 7 3.96 7 6 C6.01 6.495 6.01 6.495 5 7 C3.35 4.69 1.7 2.38 0 0 Z " fill="#2AB5FB" transform="translate(81,21)"/>
<path d="M0 0 C0 0.66 0 1.32 0 2 C-0.69867188 2.12117188 -1.39734375 2.24234375 -2.1171875 2.3671875 C-3.48230469 2.61855469 -3.48230469 2.61855469 -4.875 2.875 C-5.77992187 3.03742187 -6.68484375 3.19984375 -7.6171875 3.3671875 C-10.16505988 3.83044703 -10.16505988 3.83044703 -12 6 C-12 5.34 -12 4.68 -12 4 C-12.66 4 -13.32 4 -14 4 C-14 3.34 -14 2.68 -14 2 C-12.04200486 1.66468585 -10.08359226 1.33180857 -8.125 1 C-6.48917969 0.7215625 -6.48917969 0.7215625 -4.8203125 0.4375 C-2 0 -2 0 0 0 Z " fill="#D0ECFC" transform="translate(49,15)"/>
<path d="M0 0 C0.66 0.66 1.32 1.32 2 2 C1.9375 4 1.9375 4 1 6 C-1.5625 7.25 -1.5625 7.25 -4 8 C-2.87548273 5.0280615 -1.77706209 2.66559313 0 0 Z " fill="#DDF0FC" transform="translate(57,48)"/>
<path d="M0 0 C1.32 0 2.64 0 4 0 C2.125 4.75 2.125 4.75 1 7 C0.01 6.67 -0.98 6.34 -2 6 C-1.34 4.02 -0.68 2.04 0 0 Z " fill="#2CA8FB" transform="translate(15,25)"/>
<path d="M0 0 C0.99 0 1.98 0 3 0 C2.25 6.625 2.25 6.625 0 10 C0 6.7 0 3.4 0 0 Z " fill="#1E9FFA" transform="translate(12,50)"/>
<path d="M0 0 C0.33 1.65 0.66 3.3 1 5 C-1.31 4.67 -3.62 4.34 -6 4 C-6 3.34 -6 2.68 -6 2 C-2.25 0 -2.25 0 0 0 Z " fill="#34B2FA" transform="translate(40,12)"/>
<path d="M0 0 C1.32 0.33 2.64 0.66 4 1 C4.33 2.32 4.66 3.64 5 5 C3.35 5 1.7 5 0 5 C0 3.35 0 1.7 0 0 Z " fill="#C8EAFD" transform="translate(22,4)"/>
<path d="M0 0 C0.33 1.32 0.66 2.64 1 4 C0.34 4 -0.32 4 -1 4 C-1.33 4.66 -1.66 5.32 -2 6 C-2.99 5.67 -3.98 5.34 -5 5 C-5 4.01 -5 3.02 -5 2 C-2 0 -2 0 0 0 Z " fill="#29A7F9" transform="translate(89,35)"/>
<path d="M0 0 C1.65 0.33 3.3 0.66 5 1 C4.67 2.32 4.34 3.64 4 5 C1.03 4.505 1.03 4.505 -2 4 C-2 3.34 -2 2.68 -2 2 C-1.34 2 -0.68 2 0 2 C0 1.34 0 0.68 0 0 Z " fill="#3F9EFC" transform="translate(2,21)"/>
<path d="M0 0 C0.33 2.64 0.66 5.28 1 8 C0.67 7.01 0.34 6.02 0 5 C-2.00016466 3.79117904 -2.00016466 3.79117904 -4 3 C-4 2.34 -4 1.68 -4 1 C-2 0 -2 0 0 0 Z " fill="#31A3F9" transform="translate(11,61)"/>
<path d="M0 0 C2 3.75 2 3.75 2 6 C0.35 6.66 -1.3 7.32 -3 8 C-1.125 2.25 -1.125 2.25 0 0 Z " fill="#36A9FA" transform="translate(49,55)"/>
<path d="M0 0 C0.66 0.99 1.32 1.98 2 3 C2.66 3 3.32 3 4 3 C4.33 2.34 4.66 1.68 5 1 C5 1.99 5 2.98 5 4 C3.02 4.66 1.04 5.32 -1 6 C-1.66 5.34 -2.32 4.68 -3 4 C-2.34 3.67 -1.68 3.34 -1 3 C-0.67 2.01 -0.34 1.02 0 0 Z " fill="#44B0FA" transform="translate(77,41)"/>
<path d="M0 0 C0.66 0.33 1.32 0.66 2 1 C2 3.64 2 6.28 2 9 C1.34 9 0.68 9 0 9 C-0.84454356 5.62182575 -1.10844919 3.32534757 0 0 Z " fill="#32B3FA" transform="translate(73,15)"/>
<path d="M0 0 C1.65 1.65 3.3 3.3 5 5 C4.01 6.32 3.02 7.64 2 9 C1.71125 8.38125 1.4225 7.7625 1.125 7.125 C0.06279958 4.86674235 0.06279958 4.86674235 -2 3 C-1.34 2.01 -0.68 1.02 0 0 Z " fill="#27B3FC" transform="translate(25,0)"/>
<path d="M0 0 C0.99 0.33 1.98 0.66 3 1 C3 2.98 3 4.96 3 7 C2.01 7 1.02 7 0 7 C0 4.69 0 2.38 0 0 Z " fill="#1598F9" transform="translate(0,56)"/>
<path d="M0 0 C0.66 0.33 1.32 0.66 2 1 C1.67 1.99 1.34 2.98 1 4 C-1.0625 4.6875 -1.0625 4.6875 -3 5 C-3.33 4.01 -3.66 3.02 -4 2 C-2.125 0.9375 -2.125 0.9375 0 0 Z " fill="#202BF7" transform="translate(81,37)"/>
<path d="M0 0 C0.99 0 1.98 0 3 0 C2.67 1.65 2.34 3.3 2 5 C0.68 5.33 -0.64 5.66 -2 6 C-1.49396008 3.83125748 -1.00016187 2.00032373 0 0 Z " fill="#35A9FB" transform="translate(20,13)"/>
<path d="M0 0 C2 3 2 3 2 7 C1.01 7 0.02 7 -1 7 C-1.04254356 5.00045254 -1.04080783 2.99958364 -1 1 C-0.67 0.67 -0.34 0.34 0 0 Z " fill="#35A5F9" transform="translate(67,75)"/>
<path d="M0 0 C2.475 0.495 2.475 0.495 5 1 C4.67 1.99 4.34 2.98 4 4 C2.68 4 1.36 4 0 4 C0 2.68 0 1.36 0 0 Z " fill="#B3DEFC" transform="translate(8,25)"/>
<path d="M0 0 C1.98 0.495 1.98 0.495 4 1 C3.67 1.99 3.34 2.98 3 4 C0.9375 4.6875 0.9375 4.6875 -1 5 C-0.67 3.35 -0.34 1.7 0 0 Z " fill="#34B1FB" transform="translate(39,18)"/>
</svg>
