<svg width="17" height="17" viewBox="0 0 17 17" fill="none" xmlns="http://www.w3.org/2000/svg">
<g clip-path="url(#clip0_161_383)">
<path d="M5.09855 0.598181C4.08449 1.00932 3.17456 1.61383 2.39431 2.39386C1.61383 3.17411 1.01 4.08426 0.598633 5.09809C0.201502 6.07759 0 7.11267 0 8.17439C0 9.23589 0.201502 10.2709 0.598633 11.25C1.01 12.2641 1.61405 13.1742 2.39431 13.9543C3.17456 14.7347 4.08426 15.3388 5.09855 15.7499C6.07805 16.1475 7.1129 16.3483 8.17462 16.3483C9.23635 16.3483 10.2709 16.1468 11.2505 15.7499C12.2643 15.3388 13.1747 14.7347 13.9547 13.9543C14.7352 13.1742 15.3392 12.2646 15.7504 11.25C16.1475 10.2709 16.3485 9.23589 16.3485 8.17439C16.3485 7.11267 16.1473 6.07759 15.7504 5.09809C15.3392 4.08426 14.7348 3.17388 13.9547 2.39386C13.1747 1.61383 12.2652 1.00932 11.2505 0.598181C10.2709 0.201276 9.23635 0 8.17462 0C7.1129 0 6.07805 0.201276 5.09855 0.598181ZM2.04303 11.6155C1.64929 11.3684 1.28649 11.0837 0.96527 10.7485C0.474615 9.36782 0.391484 7.87304 0.716553 6.45417C0.869487 6.15259 1.04343 5.86299 1.24019 5.58559C1.30095 5.49997 1.3572 5.41074 1.42226 5.32761L3.26696 6.41915C3.26696 6.43361 3.26696 6.44942 3.26696 6.46547C3.26222 7.45762 3.36296 8.44253 3.56356 9.41322C3.56424 9.41775 3.56492 9.42023 3.56582 9.42429L2.1352 11.6675C2.10402 11.6517 2.07307 11.6345 2.04303 11.6155ZM7.52786 15.4077C7.84616 15.5701 8.17349 15.7072 8.50985 15.8188C7.08104 15.8809 5.63799 15.5461 4.36234 14.8143L7.45468 15.3653C7.47839 15.3804 7.50257 15.3948 7.52786 15.4077ZM7.51657 14.8495L3.8674 14.1992C3.44045 13.6807 3.05642 13.1322 2.72638 12.546C2.64235 12.3969 2.54859 12.2521 2.47744 12.0964L3.9067 9.85556C3.93832 9.8634 3.97357 9.87181 4.01355 9.88238C4.90766 10.1216 5.81759 10.2917 6.73383 10.4251C6.78737 10.4325 6.8321 10.439 6.87028 10.4431L8.5835 13.4054C8.28622 13.8233 7.98554 14.2389 7.67831 14.65C7.62727 14.7185 7.57305 14.7842 7.51657 14.8495ZM13.5878 13.5876C13.2973 13.8783 12.9889 14.1404 12.6661 14.374C12.6127 13.9461 12.5202 13.5268 12.3899 13.1173L14.2179 9.7071C14.7214 9.47788 15.2071 9.21782 15.6579 8.89547C15.717 8.85368 15.766 8.80691 15.804 8.75586C15.6715 10.5181 14.9328 12.2428 13.5878 13.5876ZM13.5068 9.16496C13.5748 9.29463 13.6418 9.42565 13.7092 9.55844L11.9435 12.8521C11.9333 12.8544 11.9236 12.8566 11.9135 12.858C10.9591 13.0362 9.99694 13.1311 9.02671 13.1356L7.2647 10.0889C7.53893 9.57969 7.8107 9.0685 8.08019 8.55706C8.26317 8.21008 8.44298 7.86085 8.62258 7.51183L12.2693 7.13729C12.7159 7.79239 13.139 8.46151 13.5068 9.16496ZM12.7669 5.25826C12.5939 5.71525 12.4087 6.16751 12.2245 6.62066L8.67205 6.98548C8.62958 6.92946 8.58553 6.87434 8.53922 6.8217C8.11972 6.34664 7.69752 5.87451 7.27599 5.40102C7.27983 5.39628 7.28367 5.39266 7.28751 5.38838C7.11741 5.2185 6.94685 5.04862 6.77676 4.87829L7.76574 1.90071C7.83396 1.88265 7.90264 1.86751 7.97199 1.86006C8.50962 1.80539 9.04795 1.74349 9.58696 1.71232C9.91695 1.6938 10.2488 1.68318 10.5845 1.70689L13.0314 4.4649C12.9472 4.73101 12.8649 4.99779 12.7669 5.25826ZM13.5878 2.76072C14.2628 3.43615 14.7856 4.20692 15.1551 5.03033C14.6979 4.71565 14.2091 4.45677 13.6951 4.24578C13.6152 4.2128 13.5331 4.18365 13.4498 4.15497L11.0413 1.44033C11.058 1.32309 11.0668 1.20562 11.0704 1.08725C11.9867 1.46021 12.8456 2.01864 13.5878 2.76072ZM5.72294 0.944709C5.73242 0.951717 5.73694 0.957591 5.74236 0.959168C6.29288 1.14938 6.79369 1.42949 7.26583 1.76179L6.3419 4.54419C6.33716 4.54555 6.33263 4.54691 6.32812 4.54894C6.13904 4.6271 5.94635 4.69713 5.7602 4.78184C4.99328 5.1304 4.24555 5.51646 3.54119 5.97933L1.71796 4.90066C1.72067 4.84373 1.73039 4.78591 1.74982 4.7344C1.87226 4.4082 1.99266 4.08019 2.13113 3.76054C2.23776 3.51432 2.35929 3.27645 2.4919 3.04399C2.57864 2.94822 2.66855 2.85334 2.76117 2.76072C3.62704 1.89507 4.65036 1.28039 5.73987 0.916925C5.73422 0.925735 5.72836 0.934997 5.72294 0.944709Z" fill="white"/>
</g>
<defs>
<clipPath id="clip0_161_383">
<rect width="17" height="17" fill="white"/>
</clipPath>
</defs>
</svg>
